<svg width="22" height="23" viewBox="0 0 22 23" fill="none" xmlns="http://www.w3.org/2000/svg">
<path d="M2.8986 17.5402C2.95581 17.322 2.82937 17.0186 2.7087 16.7999C2.67112 16.7347 2.63036 16.6715 2.58658 16.6106C1.55162 14.9841 0.999981 13.0786 1.00005 11.1304C0.98322 5.53809 5.45821 1 10.9919 1C15.8178 1 19.8462 4.46448 20.7875 9.06335C20.9285 9.74518 20.9998 10.4405 21 11.1378C21 16.7381 16.6976 21.3474 11.164 21.3474C10.2842 21.3474 9.09666 21.1183 8.44907 20.9304C7.80147 20.7426 7.15484 20.4935 6.98801 20.4268C6.81739 20.3588 6.63619 20.3239 6.4534 20.3236C6.25374 20.3229 6.05601 20.364 5.87215 20.4447L2.6111 21.6643C2.53966 21.6962 2.46396 21.7167 2.38658 21.7251C2.32552 21.7249 2.26511 21.7121 2.20884 21.6876C2.15256 21.663 2.10155 21.6271 2.05876 21.582C2.01597 21.5369 1.98224 21.4834 1.95953 21.4247C1.93683 21.3659 1.9256 21.3031 1.92649 21.2398C1.9305 21.1843 1.94017 21.1294 1.95533 21.0759L2.8986 17.5402Z" stroke="#665F65" stroke-width="0.8" stroke-miterlimit="10" stroke-linecap="round"/>
</svg>
