<svg width="24" height="27" viewBox="0 0 24 27" fill="none" xmlns="http://www.w3.org/2000/svg">
<path d="M18.5894 2.88227H5.411C4.81513 2.88227 4.27471 3.13688 3.88419 3.54679C3.49141 3.95848 3.24873 4.52567 3.24873 5.15063V17.4833C4.2932 16.1746 5.38576 14.7764 6.43906 13.6424C6.6529 13.419 6.89822 13.3163 7.15712 13.3201C7.40716 13.3235 7.64269 13.4293 7.85253 13.6192C8.87813 14.5819 9.91281 15.7269 10.9069 16.7456L14.9672 12.0478C15.0178 11.9873 15.0732 11.9319 15.133 11.881C15.3521 11.6935 15.5953 11.5963 15.8463 11.5963C16.1043 11.5963 16.353 11.6982 16.5734 11.9075C16.6222 11.952 16.6705 12.006 16.7186 12.0676L20.7518 17.2365V5.15041C20.7518 4.52524 20.5091 3.95826 20.1184 3.54854C19.726 3.13645 19.1854 2.88184 18.5897 2.88184L18.5894 2.88227ZM10.7915 8.44619C11.2738 8.44619 11.7113 8.65154 12.0281 8.98389L12.0594 9.0197C12.3569 9.3487 12.5406 9.79321 12.5406 10.2813C12.5406 10.7862 12.3443 11.2444 12.0281 11.5767C11.7094 11.9102 11.2727 12.1164 10.7915 12.1164C10.3102 12.1164 9.87352 11.9104 9.55676 11.5787C9.23808 11.2463 9.04237 10.7875 9.04237 10.2813C9.04237 9.77522 9.2381 9.31623 9.55488 8.98389C9.87166 8.65156 10.3089 8.44619 10.7915 8.44619L10.7915 8.44619ZM11.2636 9.78571C11.1433 9.65949 10.9759 9.58095 10.7915 9.58095C10.6069 9.58095 10.4396 9.6593 10.3193 9.78571C10.199 9.91193 10.1241 10.0876 10.1241 10.2811C10.1241 10.4748 10.1988 10.6502 10.3193 10.7765C10.4387 10.9027 10.6063 10.9812 10.7915 10.9812C10.9766 10.9812 11.1443 10.9029 11.2646 10.7776C11.3839 10.6514 11.4586 10.4756 11.4586 10.2813C11.4586 10.0973 11.3919 9.92993 11.2832 9.80569L11.2634 9.78591L11.2636 9.78571ZM3.24845 19.2357V21.8227C3.24845 22.4479 3.49113 23.0149 3.88183 23.4246C4.27424 23.8367 4.81485 24.0913 5.41053 24.0913H18.5889C19.1848 24.0913 19.7252 23.8367 20.1158 23.4268C20.5085 23.0151 20.7512 22.4479 20.7512 21.8229V19.0272L15.8482 12.7451C15.8418 12.7358 15.8518 12.7314 15.8455 12.7314L15.7648 12.8082L11.3156 17.9548C11.108 18.1785 10.7662 18.1835 10.5529 17.9659L7.16115 14.4901L3.24823 19.2362L3.24845 19.2357ZM21.8334 11.7315L22.7968 8.79782C23.0021 8.15325 22.9408 7.47769 22.6755 6.90651C22.489 6.50491 22.2007 6.15473 21.8336 5.90328V11.7316L21.8334 11.7315ZM21.7925 4.61328C22.6312 4.95633 23.2772 5.61353 23.6472 6.41019C24.0341 7.24366 24.1213 8.23226 23.8162 9.17412L21.8334 15.2126V21.8228C21.8334 22.7558 21.4691 23.6059 20.8815 24.2235L20.8787 24.2265C20.29 24.8432 19.4794 25.2261 18.5893 25.2261H18.4556C18.067 25.8873 17.4908 26.3888 16.8298 26.6769C16.0735 27.0069 15.2036 27.0605 14.3739 26.7606L10.1284 25.226H5.41088C4.5216 25.226 3.71135 24.8437 3.12266 24.2273L3.11983 24.2243C2.64691 23.7275 2.31841 23.08 2.20792 22.3597C1.36918 22.0167 0.723149 21.3595 0.353188 20.5626C-0.0360094 19.7248 -0.122186 18.7313 0.188381 17.7852L2.16698 11.7599V5.15019C2.16698 4.2172 2.53129 3.36712 3.11886 2.74949L3.12169 2.74653C3.71038 2.12987 4.52102 1.74688 5.41107 1.74688H5.54476C5.93301 1.08571 6.5091 0.584215 7.17019 0.295789C7.92691 -0.0341973 8.79654 -0.0874156 9.62645 0.212305L13.872 1.74691H18.5895C19.4788 1.74691 20.289 2.12913 20.8777 2.74559L20.8806 2.74856C21.3535 3.24532 21.682 3.89285 21.7925 4.61313L21.7925 4.61328ZM10.5541 1.74725L9.27602 1.28531C8.70389 1.07858 8.10444 1.11478 7.58421 1.34189C7.35529 1.4418 7.14108 1.57831 6.95083 1.74725H10.5543H10.5541ZM2.16726 15.2418L1.21102 18.1537C0.99738 18.8046 1.05716 19.4892 1.3253 20.0667C1.51216 20.4687 1.8001 20.819 2.16722 21.0703L2.16726 15.2418ZM13.4466 25.2265L14.7247 25.6885C15.2969 25.8952 15.8963 25.8582 16.4164 25.6315C16.6453 25.5316 16.8595 25.3951 17.0497 25.2265H13.4466Z" fill="#D30026"/>
</svg>
